# xmcd
#
# Track frame offsets:
#	150
#	17111
#	44051
#	67965
#	91223
#	102435
#	121463
#	152808
#	175979
#	192769
#	220984
#	250707
#	279708
#	304544
#
# Disc length: 4380 seconds
#
# Revision: 0
# Processed by: cddbd v1.5.2PL0 Copyright (c) Steve Scherf et al.
# Submitted via: dBpowerAMP V4.0
#
DISCID=c4111a0e
DTITLE=Hot Tuna - The Filmore San Fransico CA Disc 01
DYEAR=1988
DGENRE=Blues
TTITLE0=01 I Know You Rider
TTITLE1=02 Hesitation Blues
TTITLE2=03 Walkin' Blues
TTITLE3=04 Other Side Of This Life
TTITLE4=05 The Bag I'm In
TTITLE5=06 I'll Be All Right Some Day
TTITLE6=07 99 Years Blues
TTITLE7=08 Mariel
TTITLE8=09 Wooden Ships
TTITLE9=10 3rd Week In Chelsea
TTITLE10=11 Down Hom Blues
TTITLE11=12 Keep On Truckin'
TTITLE12=13 Keep Your Lamps Trimmed And Burning
TTITLE13=14 Candyman
EXTD=
EXTT0=
EXTT1=
EXTT2=
EXTT3=
EXTT4=
EXTT5=
EXTT6=
EXTT7=
EXTT8=
EXTT9=
EXTT10=
EXTT11=
EXTT12=
EXTT13=
PLAYORDER=
